<?xml version="1.0" encoding="UTF-8" standalone="no"?>
<!-- Created with Inkscape (http://www.inkscape.org/) -->

<svg
   xmlns:dc="http://purl.org/dc/elements/1.1/"
   xmlns:cc="http://creativecommons.org/ns#"
   xmlns:rdf="http://www.w3.org/1999/02/22-rdf-syntax-ns#"
   xmlns:svg="http://www.w3.org/2000/svg"
   xmlns="http://www.w3.org/2000/svg"
   xmlns:sodipodi="http://sodipodi.sourceforge.net/DTD/sodipodi-0.dtd"
   xmlns:inkscape="http://www.inkscape.org/namespaces/inkscape"
   id="svg2"
   version="1.1"
   inkscape:version="0.48.3.1 r9886"
   width="765"
   height="990"
   xml:space="preserve"
   sodipodi:docname="ABScompare.pdf"><metadata
     id="metadata8"><rdf:RDF><cc:Work
         rdf:about=""><dc:format>image/svg+xml</dc:format><dc:type
           rdf:resource="http://purl.org/dc/dcmitype/StillImage" /><dc:title></dc:title></cc:Work></rdf:RDF></metadata><defs
     id="defs6"><clipPath
       clipPathUnits="userSpaceOnUse"
       id="clipPath18"><path
         d="m 960,5527.51 0,-3150.01 4200.01,0 0,3150.01 -4200.01,0 z"
         id="path20" /></clipPath><clipPath
       clipPathUnits="userSpaceOnUse"
       id="clipPath236"><path
         d="m 1507.5,5295.01 0,-2497.51 3262.51,0 0,2497.51 -3262.51,0 z"
         id="path238" /></clipPath><clipPath
       clipPathUnits="userSpaceOnUse"
       id="clipPath280"><path
         d="m 960,5527.51 0,-3150.01 4200.01,0 0,3150.01 -4200.01,0 z"
         id="path282" /></clipPath><clipPath
       clipPathUnits="userSpaceOnUse"
       id="clipPath314"><path
         d="m 1507.5,5295.01 0,-2497.51 3262.51,0 0,2497.51 -3262.51,0 z"
         id="path316" /></clipPath><clipPath
       clipPathUnits="userSpaceOnUse"
       id="clipPath358"><path
         d="m 960,5527.51 0,-3150.01 4200.01,0 0,3150.01 -4200.01,0 z"
         id="path360" /></clipPath><clipPath
       clipPathUnits="userSpaceOnUse"
       id="clipPath410"><path
         d="m 1560,5347.51 0,-420 420,0 0,420 -420,0 z"
         id="path412" /></clipPath><clipPath
       clipPathUnits="userSpaceOnUse"
       id="clipPath420"><path
         d="m 960,5527.51 0,-3150.01 4200.01,0 0,3150.01 -4200.01,0 z"
         id="path422" /></clipPath><clipPath
       clipPathUnits="userSpaceOnUse"
       id="clipPath434"><path
         d="m 1560,5167.51 0,-420 420,0 0,420 -420,0 z"
         id="path436" /></clipPath></defs><sodipodi:namedview
     pagecolor="#ffffff"
     bordercolor="#666666"
     borderopacity="1"
     objecttolerance="10"
     gridtolerance="10"
     guidetolerance="10"
     inkscape:pageopacity="0"
     inkscape:pageshadow="2"
     inkscape:window-width="640"
     inkscape:window-height="480"
     id="namedview4"
     showgrid="false"
     inkscape:zoom="0.23838384"
     inkscape:cx="382.5"
     inkscape:cy="495"
     inkscape:window-x="0"
     inkscape:window-y="0"
     inkscape:window-maximized="0"
     inkscape:current-layer="g10" /><g
     id="g10"
     inkscape:groupmode="layer"
     inkscape:label="ABScompare"
     transform="matrix(1.25,0,0,-1.25,0,990)"><g
       id="g12"
       transform="scale(0.1,0.1)"><g
         id="g14"><g
           id="g16"
           clip-path="url(#clipPath18)"><path
             d="m 1500,2805 0,2482.51 3262.51,0 0,-2482.51 -3262.51,0"
             style="fill:none;stroke:#ffffff;stroke-opacity:1;stroke-width:5.00001;stroke-linecap:butt;stroke-linejoin:round;stroke-miterlimit:10;stroke-dasharray:none"
             id="path22" /><path
             d="m 1500,2805 0,2482.51"
             style="fill:none;stroke:#000000;stroke-opacity:1;stroke-width:3.33334;stroke-linecap:butt;stroke-linejoin:round;stroke-miterlimit:10;stroke-dasharray:5,40;stroke-dashoffset:0"
             id="path24" /><path
             d="m 1500,5287.51 0,0"
             style="fill:none;stroke:#000000;stroke-opacity:1;stroke-width:3.33334;stroke-linecap:butt;stroke-linejoin:round;stroke-miterlimit:10;stroke-dasharray:5,40;stroke-dashoffset:0"
             id="path26" /><path
             d="m 2152.5,2805 0,2482.51"
             style="fill:none;stroke:#000000;stroke-opacity:1;stroke-width:3.33334;stroke-linecap:butt;stroke-linejoin:round;stroke-miterlimit:10;stroke-dasharray:5,40;stroke-dashoffset:0"
             id="path28" /><path
             d="m 2152.5,5287.51 0,0"
             style="fill:none;stroke:#000000;stroke-opacity:1;stroke-width:3.33334;stroke-linecap:butt;stroke-linejoin:round;stroke-miterlimit:10;stroke-dasharray:5,40;stroke-dashoffset:0"
             id="path30" /><path
             d="m 2805,2805 0,2482.51"
             style="fill:none;stroke:#000000;stroke-opacity:1;stroke-width:3.33334;stroke-linecap:butt;stroke-linejoin:round;stroke-miterlimit:10;stroke-dasharray:5,40;stroke-dashoffset:0"
             id="path32" /><path
             d="m 2805,5287.51 0,0"
             style="fill:none;stroke:#000000;stroke-opacity:1;stroke-width:3.33334;stroke-linecap:butt;stroke-linejoin:round;stroke-miterlimit:10;stroke-dasharray:5,40;stroke-dashoffset:0"
             id="path34" /><path
             d="m 3457.51,2805 0,2482.51"
             style="fill:none;stroke:#000000;stroke-opacity:1;stroke-width:3.33334;stroke-linecap:butt;stroke-linejoin:round;stroke-miterlimit:10;stroke-dasharray:5,40;stroke-dashoffset:0"
             id="path36" /><path
             d="m 3457.51,5287.51 0,0"
             style="fill:none;stroke:#000000;stroke-opacity:1;stroke-width:3.33334;stroke-linecap:butt;stroke-linejoin:round;stroke-miterlimit:10;stroke-dasharray:5,40;stroke-dashoffset:0"
             id="path38" /><path
             d="m 4110.01,2805 0,2482.51"
             style="fill:none;stroke:#000000;stroke-opacity:1;stroke-width:3.33334;stroke-linecap:butt;stroke-linejoin:round;stroke-miterlimit:10;stroke-dasharray:5,40;stroke-dashoffset:0"
             id="path40" /><path
             d="m 4110.01,5287.51 0,0"
             style="fill:none;stroke:#000000;stroke-opacity:1;stroke-width:3.33334;stroke-linecap:butt;stroke-linejoin:round;stroke-miterlimit:10;stroke-dasharray:5,40;stroke-dashoffset:0"
             id="path42" /><path
             d="m 4762.51,2805 0,2482.51"
             style="fill:none;stroke:#000000;stroke-opacity:1;stroke-width:3.33334;stroke-linecap:butt;stroke-linejoin:round;stroke-miterlimit:10;stroke-dasharray:5,40;stroke-dashoffset:0"
             id="path44" /><path
             d="m 4762.51,5287.51 0,0"
             style="fill:none;stroke:#000000;stroke-opacity:1;stroke-width:3.33334;stroke-linecap:butt;stroke-linejoin:round;stroke-miterlimit:10;stroke-dasharray:5,40;stroke-dashoffset:0"
             id="path46" /><path
             d="m 1500,2805 3262.51,0"
             style="fill:none;stroke:#000000;stroke-opacity:1;stroke-width:3.33334;stroke-linecap:butt;stroke-linejoin:round;stroke-miterlimit:10;stroke-dasharray:5,40;stroke-dashoffset:0"
             id="path48" /><path
             d="m 4762.51,2805 0,0"
             style="fill:none;stroke:#000000;stroke-opacity:1;stroke-width:3.33334;stroke-linecap:butt;stroke-linejoin:round;stroke-miterlimit:10;stroke-dasharray:5,40;stroke-dashoffset:0"
             id="path50" /><path
             d="m 1500,3225.01 3262.51,0"
             style="fill:none;stroke:#000000;stroke-opacity:1;stroke-width:3.33334;stroke-linecap:butt;stroke-linejoin:round;stroke-miterlimit:10;stroke-dasharray:5,40;stroke-dashoffset:0"
             id="path52" /><path
             d="m 4762.51,3225.01 0,0"
             style="fill:none;stroke:#000000;stroke-opacity:1;stroke-width:3.33334;stroke-linecap:butt;stroke-linejoin:round;stroke-miterlimit:10;stroke-dasharray:5,40;stroke-dashoffset:0"
             id="path54" /><path
             d="m 1500,3637.51 3262.51,0"
             style="fill:none;stroke:#000000;stroke-opacity:1;stroke-width:3.33334;stroke-linecap:butt;stroke-linejoin:round;stroke-miterlimit:10;stroke-dasharray:5,40;stroke-dashoffset:0"
             id="path56" /><path
             d="m 4762.51,3637.51 0,0"
             style="fill:none;stroke:#000000;stroke-opacity:1;stroke-width:3.33334;stroke-linecap:butt;stroke-linejoin:round;stroke-miterlimit:10;stroke-dasharray:5,40;stroke-dashoffset:0"
             id="path58" /><path
             d="m 1500,4050.01 3262.51,0"
             style="fill:none;stroke:#000000;stroke-opacity:1;stroke-width:3.33334;stroke-linecap:butt;stroke-linejoin:round;stroke-miterlimit:10;stroke-dasharray:5,40;stroke-dashoffset:0"
             id="path60" /><path
             d="m 4762.51,4050.01 0,0"
             style="fill:none;stroke:#000000;stroke-opacity:1;stroke-width:3.33334;stroke-linecap:butt;stroke-linejoin:round;stroke-miterlimit:10;stroke-dasharray:5,40;stroke-dashoffset:0"
             id="path62" /><path
             d="m 1500,4462.51 3262.51,0"
             style="fill:none;stroke:#000000;stroke-opacity:1;stroke-width:3.33334;stroke-linecap:butt;stroke-linejoin:round;stroke-miterlimit:10;stroke-dasharray:5,40;stroke-dashoffset:0"
             id="path64" /><path
             d="m 4762.51,4462.51 0,0"
             style="fill:none;stroke:#000000;stroke-opacity:1;stroke-width:3.33334;stroke-linecap:butt;stroke-linejoin:round;stroke-miterlimit:10;stroke-dasharray:5,40;stroke-dashoffset:0"
             id="path66" /><path
             d="m 1500,4875.01 3262.51,0"
             style="fill:none;stroke:#000000;stroke-opacity:1;stroke-width:3.33334;stroke-linecap:butt;stroke-linejoin:round;stroke-miterlimit:10;stroke-dasharray:5,40;stroke-dashoffset:0"
             id="path68" /><path
             d="m 4762.51,4875.01 0,0"
             style="fill:none;stroke:#000000;stroke-opacity:1;stroke-width:3.33334;stroke-linecap:butt;stroke-linejoin:round;stroke-miterlimit:10;stroke-dasharray:5,40;stroke-dashoffset:0"
             id="path70" /><path
             d="m 1500,5287.51 3262.51,0"
             style="fill:none;stroke:#000000;stroke-opacity:1;stroke-width:3.33334;stroke-linecap:butt;stroke-linejoin:round;stroke-miterlimit:10;stroke-dasharray:5,40;stroke-dashoffset:0"
             id="path72" /><path
             d="m 4762.51,5287.51 0,0"
             style="fill:none;stroke:#000000;stroke-opacity:1;stroke-width:3.33334;stroke-linecap:butt;stroke-linejoin:round;stroke-miterlimit:10;stroke-dasharray:5,40;stroke-dashoffset:0"
             id="path74" /><path
             d="m 1500,5287.51 3262.51,0"
             style="fill:none;stroke:#000000;stroke-opacity:1;stroke-width:5.00001;stroke-linecap:butt;stroke-linejoin:round;stroke-miterlimit:10;stroke-dasharray:none"
             id="path76" /><path
             d="m 1500,2805 3262.51,0"
             style="fill:none;stroke:#000000;stroke-opacity:1;stroke-width:5.00001;stroke-linecap:butt;stroke-linejoin:round;stroke-miterlimit:10;stroke-dasharray:none"
             id="path78" /><path
             d="m 4762.51,2805 0,2482.51"
             style="fill:none;stroke:#000000;stroke-opacity:1;stroke-width:5.00001;stroke-linecap:butt;stroke-linejoin:round;stroke-miterlimit:10;stroke-dasharray:none"
             id="path80" /><path
             d="m 1500,2805 0,2482.51"
             style="fill:none;stroke:#000000;stroke-opacity:1;stroke-width:5.00001;stroke-linecap:butt;stroke-linejoin:round;stroke-miterlimit:10;stroke-dasharray:none"
             id="path82" /><path
             d="m 1500,2805 3262.51,0"
             style="fill:none;stroke:#000000;stroke-opacity:1;stroke-width:5.00001;stroke-linecap:butt;stroke-linejoin:round;stroke-miterlimit:10;stroke-dasharray:none"
             id="path84" /><path
             d="m 1500,2805 0,2482.51"
             style="fill:none;stroke:#000000;stroke-opacity:1;stroke-width:5.00001;stroke-linecap:butt;stroke-linejoin:round;stroke-miterlimit:10;stroke-dasharray:none"
             id="path86" /><path
             d="m 1500,2805 0,37.5"
             style="fill:none;stroke:#000000;stroke-opacity:1;stroke-width:5.00001;stroke-linecap:butt;stroke-linejoin:round;stroke-miterlimit:10;stroke-dasharray:none"
             id="path88" /><path
             d="m 1500,5287.51 0,-30"
             style="fill:none;stroke:#000000;stroke-opacity:1;stroke-width:5.00001;stroke-linecap:butt;stroke-linejoin:round;stroke-miterlimit:10;stroke-dasharray:none"
             id="path90" /><g
             id="g92"
             transform="scale(10,10)"><text
               transform="matrix(1,0,0,-1,138,264.75)"
               id="text94"><tspan
                 style="fill:#000000;fill-opacity:1;fill-rule:nonzero;stroke:none;font-family:Helvetica;font-variant:normal;font-weight:normal;font-size:14.0001;writing-mode:lr;-inkscape-font-specification:Helvetica"
                 x="0 7.7840556 15.5681112"
                 y="0"
                 sodipodi:role="line"
                 id="tspan96">200</tspan></text>
</g><path
             d="m 2152.5,2805 0,37.5"
             style="fill:none;stroke:#000000;stroke-opacity:1;stroke-width:5.00001;stroke-linecap:butt;stroke-linejoin:round;stroke-miterlimit:10;stroke-dasharray:none"
             id="path98" /><path
             d="m 2152.5,5287.51 0,-30"
             style="fill:none;stroke:#000000;stroke-opacity:1;stroke-width:5.00001;stroke-linecap:butt;stroke-linejoin:round;stroke-miterlimit:10;stroke-dasharray:none"
             id="path100" /><g
             id="g102"
             transform="scale(10,10)"><text
               transform="matrix(1,0,0,-1,203.25,264.75)"
               id="text104"><tspan
                 style="fill:#000000;fill-opacity:1;fill-rule:nonzero;stroke:none;font-family:Helvetica;font-variant:normal;font-weight:normal;font-size:14.0001;writing-mode:lr;-inkscape-font-specification:Helvetica"
                 x="0 7.7840556 15.5681112"
                 y="0"
                 sodipodi:role="line"
                 id="tspan106">400</tspan></text>
</g><path
             d="m 2805,2805 0,37.5"
             style="fill:none;stroke:#000000;stroke-opacity:1;stroke-width:5.00001;stroke-linecap:butt;stroke-linejoin:round;stroke-miterlimit:10;stroke-dasharray:none"
             id="path108" /><path
             d="m 2805,5287.51 0,-30"
             style="fill:none;stroke:#000000;stroke-opacity:1;stroke-width:5.00001;stroke-linecap:butt;stroke-linejoin:round;stroke-miterlimit:10;stroke-dasharray:none"
             id="path110" /><g
             id="g112"
             transform="scale(10,10)"><text
               transform="matrix(1,0,0,-1,268.5,264.75)"
               id="text114"><tspan
                 style="fill:#000000;fill-opacity:1;fill-rule:nonzero;stroke:none;font-family:Helvetica;font-variant:normal;font-weight:normal;font-size:14.0001;writing-mode:lr;-inkscape-font-specification:Helvetica"
                 x="0 7.7840556 15.5681112"
                 y="0"
                 sodipodi:role="line"
                 id="tspan116">600</tspan></text>
</g><path
             d="m 3457.51,2805 0,37.5"
             style="fill:none;stroke:#000000;stroke-opacity:1;stroke-width:5.00001;stroke-linecap:butt;stroke-linejoin:round;stroke-miterlimit:10;stroke-dasharray:none"
             id="path118" /><path
             d="m 3457.51,5287.51 0,-30"
             style="fill:none;stroke:#000000;stroke-opacity:1;stroke-width:5.00001;stroke-linecap:butt;stroke-linejoin:round;stroke-miterlimit:10;stroke-dasharray:none"
             id="path120" /><g
             id="g122"
             transform="scale(10,10)"><text
               transform="matrix(1,0,0,-1,333.751,264.75)"
               id="text124"><tspan
                 style="fill:#000000;fill-opacity:1;fill-rule:nonzero;stroke:none;font-family:Helvetica;font-variant:normal;font-weight:normal;font-size:14.0001;writing-mode:lr;-inkscape-font-specification:Helvetica"
                 x="0 7.7840556 15.5681112"
                 y="0"
                 sodipodi:role="line"
                 id="tspan126">800</tspan></text>
</g><path
             d="m 4110.01,2805 0,37.5"
             style="fill:none;stroke:#000000;stroke-opacity:1;stroke-width:5.00001;stroke-linecap:butt;stroke-linejoin:round;stroke-miterlimit:10;stroke-dasharray:none"
             id="path128" /><path
             d="m 4110.01,5287.51 0,-30"
             style="fill:none;stroke:#000000;stroke-opacity:1;stroke-width:5.00001;stroke-linecap:butt;stroke-linejoin:round;stroke-miterlimit:10;stroke-dasharray:none"
             id="path130" /><g
             id="g132"
             transform="scale(10,10)"><text
               transform="matrix(1,0,0,-1,394.501,264.75)"
               id="text134"><tspan
                 style="fill:#000000;fill-opacity:1;fill-rule:nonzero;stroke:none;font-family:Helvetica;font-variant:normal;font-weight:normal;font-size:14.0001;writing-mode:lr;-inkscape-font-specification:Helvetica"
                 x="0 7.7840556 15.5681112 23.3521668"
                 y="0"
                 sodipodi:role="line"
                 id="tspan136">1000</tspan></text>
</g><path
             d="m 4762.51,2805 0,37.5"
             style="fill:none;stroke:#000000;stroke-opacity:1;stroke-width:5.00001;stroke-linecap:butt;stroke-linejoin:round;stroke-miterlimit:10;stroke-dasharray:none"
             id="path138" /><path
             d="m 4762.51,5287.51 0,-30"
             style="fill:none;stroke:#000000;stroke-opacity:1;stroke-width:5.00001;stroke-linecap:butt;stroke-linejoin:round;stroke-miterlimit:10;stroke-dasharray:none"
             id="path140" /><g
             id="g142"
             transform="scale(10,10)"><text
               transform="matrix(1,0,0,-1,459.751,264.75)"
               id="text144"><tspan
                 style="fill:#000000;fill-opacity:1;fill-rule:nonzero;stroke:none;font-family:Helvetica;font-variant:normal;font-weight:normal;font-size:14.0001;writing-mode:lr;-inkscape-font-specification:Helvetica"
                 x="0 7.7840556 15.5681112 23.3521668"
                 y="0"
                 sodipodi:role="line"
                 id="tspan146">1200</tspan></text>
</g><path
             d="m 1500,2805 37.5,0"
             style="fill:none;stroke:#000000;stroke-opacity:1;stroke-width:5.00001;stroke-linecap:butt;stroke-linejoin:round;stroke-miterlimit:10;stroke-dasharray:none"
             id="path148" /><path
             d="m 4762.51,2805 -37.5,0"
             style="fill:none;stroke:#000000;stroke-opacity:1;stroke-width:5.00001;stroke-linecap:butt;stroke-linejoin:round;stroke-miterlimit:10;stroke-dasharray:none"
             id="path150" /><g
             id="g152"
             transform="scale(10,10)"><text
               transform="matrix(1,0,0,-1,139.5,275.25)"
               id="text154"><tspan
                 style="fill:#000000;fill-opacity:1;fill-rule:nonzero;stroke:none;font-family:Helvetica;font-variant:normal;font-weight:normal;font-size:14.0001;writing-mode:lr;-inkscape-font-specification:Helvetica"
                 x="0"
                 y="0"
                 id="tspan156">2</tspan></text>
</g><path
             d="m 1500,3225.01 37.5,0"
             style="fill:none;stroke:#000000;stroke-opacity:1;stroke-width:5.00001;stroke-linecap:butt;stroke-linejoin:round;stroke-miterlimit:10;stroke-dasharray:none"
             id="path158" /><path
             d="m 4762.51,3225.01 -37.5,0"
             style="fill:none;stroke:#000000;stroke-opacity:1;stroke-width:5.00001;stroke-linecap:butt;stroke-linejoin:round;stroke-miterlimit:10;stroke-dasharray:none"
             id="path160" /><g
             id="g162"
             transform="scale(10,10)"><text
               transform="matrix(1,0,0,-1,139.5,317.251)"
               id="text164"><tspan
                 style="fill:#000000;fill-opacity:1;fill-rule:nonzero;stroke:none;font-family:Helvetica;font-variant:normal;font-weight:normal;font-size:14.0001;writing-mode:lr;-inkscape-font-specification:Helvetica"
                 x="0"
                 y="0"
                 id="tspan166">3</tspan></text>
</g><path
             d="m 1500,3637.51 37.5,0"
             style="fill:none;stroke:#000000;stroke-opacity:1;stroke-width:5.00001;stroke-linecap:butt;stroke-linejoin:round;stroke-miterlimit:10;stroke-dasharray:none"
             id="path168" /><path
             d="m 4762.51,3637.51 -37.5,0"
             style="fill:none;stroke:#000000;stroke-opacity:1;stroke-width:5.00001;stroke-linecap:butt;stroke-linejoin:round;stroke-miterlimit:10;stroke-dasharray:none"
             id="path170" /><g
             id="g172"
             transform="scale(10,10)"><text
               transform="matrix(1,0,0,-1,139.5,358.501)"
               id="text174"><tspan
                 style="fill:#000000;fill-opacity:1;fill-rule:nonzero;stroke:none;font-family:Helvetica;font-variant:normal;font-weight:normal;font-size:14.0001;writing-mode:lr;-inkscape-font-specification:Helvetica"
                 x="0"
                 y="0"
                 id="tspan176">4</tspan></text>
</g><path
             d="m 1500,4050.01 37.5,0"
             style="fill:none;stroke:#000000;stroke-opacity:1;stroke-width:5.00001;stroke-linecap:butt;stroke-linejoin:round;stroke-miterlimit:10;stroke-dasharray:none"
             id="path178" /><path
             d="m 4762.51,4050.01 -37.5,0"
             style="fill:none;stroke:#000000;stroke-opacity:1;stroke-width:5.00001;stroke-linecap:butt;stroke-linejoin:round;stroke-miterlimit:10;stroke-dasharray:none"
             id="path180" /><g
             id="g182"
             transform="scale(10,10)"><text
               transform="matrix(1,0,0,-1,139.5,399.751)"
               id="text184"><tspan
                 style="fill:#000000;fill-opacity:1;fill-rule:nonzero;stroke:none;font-family:Helvetica;font-variant:normal;font-weight:normal;font-size:14.0001;writing-mode:lr;-inkscape-font-specification:Helvetica"
                 x="0"
                 y="0"
                 id="tspan186">5</tspan></text>
</g><path
             d="m 1500,4462.51 37.5,0"
             style="fill:none;stroke:#000000;stroke-opacity:1;stroke-width:5.00001;stroke-linecap:butt;stroke-linejoin:round;stroke-miterlimit:10;stroke-dasharray:none"
             id="path188" /><path
             d="m 4762.51,4462.51 -37.5,0"
             style="fill:none;stroke:#000000;stroke-opacity:1;stroke-width:5.00001;stroke-linecap:butt;stroke-linejoin:round;stroke-miterlimit:10;stroke-dasharray:none"
             id="path190" /><g
             id="g192"
             transform="scale(10,10)"><text
               transform="matrix(1,0,0,-1,139.5,441.001)"
               id="text194"><tspan
                 style="fill:#000000;fill-opacity:1;fill-rule:nonzero;stroke:none;font-family:Helvetica;font-variant:normal;font-weight:normal;font-size:14.0001;writing-mode:lr;-inkscape-font-specification:Helvetica"
                 x="0"
                 y="0"
                 id="tspan196">6</tspan></text>
</g><path
             d="m 1500,4875.01 37.5,0"
             style="fill:none;stroke:#000000;stroke-opacity:1;stroke-width:5.00001;stroke-linecap:butt;stroke-linejoin:round;stroke-miterlimit:10;stroke-dasharray:none"
             id="path198" /><path
             d="m 4762.51,4875.01 -37.5,0"
             style="fill:none;stroke:#000000;stroke-opacity:1;stroke-width:5.00001;stroke-linecap:butt;stroke-linejoin:round;stroke-miterlimit:10;stroke-dasharray:none"
             id="path200" /><g
             id="g202"
             transform="scale(10,10)"><text
               transform="matrix(1,0,0,-1,139.5,482.251)"
               id="text204"><tspan
                 style="fill:#000000;fill-opacity:1;fill-rule:nonzero;stroke:none;font-family:Helvetica;font-variant:normal;font-weight:normal;font-size:14.0001;writing-mode:lr;-inkscape-font-specification:Helvetica"
                 x="0"
                 y="0"
                 id="tspan206">7</tspan></text>
</g><path
             d="m 1500,5287.51 37.5,0"
             style="fill:none;stroke:#000000;stroke-opacity:1;stroke-width:5.00001;stroke-linecap:butt;stroke-linejoin:round;stroke-miterlimit:10;stroke-dasharray:none"
             id="path208" /><path
             d="m 4762.51,5287.51 -37.5,0"
             style="fill:none;stroke:#000000;stroke-opacity:1;stroke-width:5.00001;stroke-linecap:butt;stroke-linejoin:round;stroke-miterlimit:10;stroke-dasharray:none"
             id="path210" /><g
             id="g212"
             transform="scale(10,10)"><text
               transform="matrix(1,0,0,-1,139.5,523.501)"
               id="text214"><tspan
                 style="fill:#000000;fill-opacity:1;fill-rule:nonzero;stroke:none;font-family:Helvetica;font-variant:normal;font-weight:normal;font-size:14.0001;writing-mode:lr;-inkscape-font-specification:Helvetica"
                 x="0"
                 y="0"
                 id="tspan216">8</tspan><tspan
                 style="fill:#000000;fill-opacity:1;fill-rule:nonzero;stroke:none;font-family:Helvetica;font-variant:normal;font-weight:normal;font-size:14.0001;writing-mode:lr;-inkscape-font-specification:Helvetica"
                 x="10.5 17.50005 21.3920778 29.1761334"
                 y="-9.75"
                 sodipodi:role="line"
                 id="tspan218">x 10</tspan></text>
<text
               transform="matrix(1,0,0,-1,176.2504,541.501)"
               id="text220"><tspan
                 style="fill:#000000;fill-opacity:1;fill-rule:nonzero;stroke:none;font-family:Helvetica;font-variant:normal;font-weight:normal;font-size:9.33332;writing-mode:lr;-inkscape-font-specification:Helvetica"
                 x="0 5.45065888"
                 y="0"
                 sodipodi:role="line"
                 id="tspan222">−6</tspan></text>
</g><path
             d="m 1500,5287.51 3262.51,0"
             style="fill:none;stroke:#000000;stroke-opacity:1;stroke-width:5.00001;stroke-linecap:butt;stroke-linejoin:round;stroke-miterlimit:10;stroke-dasharray:none"
             id="path224" /><path
             d="m 1500,2805 3262.51,0"
             style="fill:none;stroke:#000000;stroke-opacity:1;stroke-width:5.00001;stroke-linecap:butt;stroke-linejoin:round;stroke-miterlimit:10;stroke-dasharray:none"
             id="path226" /><path
             d="m 4762.51,2805 0,2482.51"
             style="fill:none;stroke:#000000;stroke-opacity:1;stroke-width:5.00001;stroke-linecap:butt;stroke-linejoin:round;stroke-miterlimit:10;stroke-dasharray:none"
             id="path228" /><path
             d="m 1500,2805 0,2482.51"
             style="fill:none;stroke:#000000;stroke-opacity:1;stroke-width:5.00001;stroke-linecap:butt;stroke-linejoin:round;stroke-miterlimit:10;stroke-dasharray:none"
             id="path230" /></g></g><g
         id="g232"><g
           id="g234"
           clip-path="url(#clipPath236)"><path
             d="m 2107.5,4237.51 0,-412.5"
             style="fill:none;stroke:#0000ff;stroke-opacity:1;stroke-width:25;stroke-linecap:butt;stroke-linejoin:round;stroke-miterlimit:10;stroke-dasharray:none"
             id="path240" /><path
             d="m 2085,4237.51 45,0"
             style="fill:none;stroke:#0000ff;stroke-opacity:1;stroke-width:25;stroke-linecap:butt;stroke-linejoin:round;stroke-miterlimit:10;stroke-dasharray:none"
             id="path242" /><path
             d="m 2085,3825.01 45,0"
             style="fill:none;stroke:#0000ff;stroke-opacity:1;stroke-width:25;stroke-linecap:butt;stroke-linejoin:round;stroke-miterlimit:10;stroke-dasharray:none"
             id="path244" /><path
             d="m 2250,4305.01 0,-450"
             style="fill:none;stroke:#0000ff;stroke-opacity:1;stroke-width:25;stroke-linecap:butt;stroke-linejoin:round;stroke-miterlimit:10;stroke-dasharray:none"
             id="path246" /><path
             d="m 2227.5,4305.01 45,0"
             style="fill:none;stroke:#0000ff;stroke-opacity:1;stroke-width:25;stroke-linecap:butt;stroke-linejoin:round;stroke-miterlimit:10;stroke-dasharray:none"
             id="path248" /><path
             d="m 2227.5,3855.01 45,0"
             style="fill:none;stroke:#0000ff;stroke-opacity:1;stroke-width:25;stroke-linecap:butt;stroke-linejoin:round;stroke-miterlimit:10;stroke-dasharray:none"
             id="path250" /><path
             d="m 2835,4732.51 0,-315"
             style="fill:none;stroke:#0000ff;stroke-opacity:1;stroke-width:25;stroke-linecap:butt;stroke-linejoin:round;stroke-miterlimit:10;stroke-dasharray:none"
             id="path252" /><path
             d="m 2812.5,4732.51 37.5,0"
             style="fill:none;stroke:#0000ff;stroke-opacity:1;stroke-width:25;stroke-linecap:butt;stroke-linejoin:round;stroke-miterlimit:10;stroke-dasharray:none"
             id="path254" /><path
             d="m 2812.5,4417.51 37.5,0"
             style="fill:none;stroke:#0000ff;stroke-opacity:1;stroke-width:25;stroke-linecap:butt;stroke-linejoin:round;stroke-miterlimit:10;stroke-dasharray:none"
             id="path256" /><path
             d="m 3352.51,4717.51 0,-172.5"
             style="fill:none;stroke:#0000ff;stroke-opacity:1;stroke-width:25;stroke-linecap:butt;stroke-linejoin:round;stroke-miterlimit:10;stroke-dasharray:none"
             id="path258" /><path
             d="m 3337.51,4717.51 37.5,0"
             style="fill:none;stroke:#0000ff;stroke-opacity:1;stroke-width:25;stroke-linecap:butt;stroke-linejoin:round;stroke-miterlimit:10;stroke-dasharray:none"
             id="path260" /><path
             d="m 3337.51,4545.01 37.5,0"
             style="fill:none;stroke:#0000ff;stroke-opacity:1;stroke-width:25;stroke-linecap:butt;stroke-linejoin:round;stroke-miterlimit:10;stroke-dasharray:none"
             id="path262" /><path
             d="m 3832.51,4747.51 0,-120"
             style="fill:none;stroke:#0000ff;stroke-opacity:1;stroke-width:25;stroke-linecap:butt;stroke-linejoin:round;stroke-miterlimit:10;stroke-dasharray:none"
             id="path264" /><path
             d="m 3810.01,4747.51 45,0"
             style="fill:none;stroke:#0000ff;stroke-opacity:1;stroke-width:25;stroke-linecap:butt;stroke-linejoin:round;stroke-miterlimit:10;stroke-dasharray:none"
             id="path266" /><path
             d="m 3810.01,4627.51 45,0"
             style="fill:none;stroke:#0000ff;stroke-opacity:1;stroke-width:25;stroke-linecap:butt;stroke-linejoin:round;stroke-miterlimit:10;stroke-dasharray:none"
             id="path268" /><path
             d="m 4267.51,4980.01 0,-180"
             style="fill:none;stroke:#0000ff;stroke-opacity:1;stroke-width:25;stroke-linecap:butt;stroke-linejoin:round;stroke-miterlimit:10;stroke-dasharray:none"
             id="path270" /><path
             d="m 4245.01,4980.01 37.5,0"
             style="fill:none;stroke:#0000ff;stroke-opacity:1;stroke-width:25;stroke-linecap:butt;stroke-linejoin:round;stroke-miterlimit:10;stroke-dasharray:none"
             id="path272" /><path
             d="m 4245.01,4800.01 37.5,0"
             style="fill:none;stroke:#0000ff;stroke-opacity:1;stroke-width:25;stroke-linecap:butt;stroke-linejoin:round;stroke-miterlimit:10;stroke-dasharray:none"
             id="path274" /></g></g><g
         id="g276"><g
           id="g278"
           clip-path="url(#clipPath280)"><path
             d="m 2137.5,4027.51 c 0,-16.57 -13.43,-30 -30,-30 -16.56,0 -30,13.43 -30,30 0,16.56 13.44,30 30,30 16.57,0 30,-13.44 30,-30"
             style="fill:#0000ff;fill-opacity:1;fill-rule:nonzero;stroke:none"
             id="path284" /><path
             d="m 2280,4080.01 c 0,-16.57 -13.43,-30 -30,-30 -16.56,0 -30,13.43 -30,30 0,16.56 13.44,30 30,30 16.57,0 30,-13.44 30,-30"
             style="fill:#0000ff;fill-opacity:1;fill-rule:nonzero;stroke:none"
             id="path286" /><path
             d="m 2865,4575.01 c 0,-16.57 -13.43,-30 -30,-30 -16.56,0 -30,13.43 -30,30 0,16.56 13.44,30 30,30 16.57,0 30,-13.44 30,-30"
             style="fill:#0000ff;fill-opacity:1;fill-rule:nonzero;stroke:none"
             id="path288" /><path
             d="m 3382.51,4635.01 c 0,-16.57 -13.44,-30 -30,-30 -16.57,0 -30.01,13.43 -30.01,30 0,16.56 13.44,30 30.01,30 16.56,0 30,-13.44 30,-30"
             style="fill:#0000ff;fill-opacity:1;fill-rule:nonzero;stroke:none"
             id="path290" /><path
             d="m 3862.51,4687.51 c 0,-16.57 -13.44,-30 -30,-30 -16.57,0 -30,13.43 -30,30 0,16.56 13.43,30 30,30 16.56,0 30,-13.44 30,-30"
             style="fill:#0000ff;fill-opacity:1;fill-rule:nonzero;stroke:none"
             id="path292" /><path
             d="m 4297.51,4890.01 c 0,-16.56 -13.44,-30 -30,-30 -16.57,0 -30,13.44 -30,30 0,16.57 13.43,30 30,30 16.56,0 30,-13.43 30,-30"
             style="fill:#0000ff;fill-opacity:1;fill-rule:nonzero;stroke:none"
             id="path294" /><g
             id="g296"
             transform="scale(10,10)"><text
               transform="matrix(1,0,0,-1,303.75,249.75)"
               id="text298"><tspan
                 style="fill:#000000;fill-opacity:1;fill-rule:nonzero;stroke:none;font-family:Helvetica;font-variant:normal;font-weight:normal;font-size:14.0001;writing-mode:lr;-inkscape-font-specification:Helvetica"
                 x="0"
                 y="0"
                 id="tspan300">f</tspan></text>
<text
               transform="matrix(1,0,0,-1,307.5,243)"
               id="text302"><tspan
                 style="fill:#000000;fill-opacity:1;fill-rule:nonzero;stroke:none;font-family:Helvetica;font-variant:normal;font-weight:normal;font-size:11.0001;writing-mode:lr;-inkscape-font-specification:Helvetica"
                 x="0 3.6630333 9.7790889"
                 y="0"
                 sodipodi:role="line"
                 id="tspan304">res</tspan></text>
<text
               transform="matrix(0,1,1,0,131.25,335.251)"
               id="text306"><tspan
                 style="fill:#000000;fill-opacity:1;fill-rule:nonzero;stroke:none;font-family:Helvetica;font-variant:normal;font-weight:normal;font-size:14.0001;writing-mode:lr;-inkscape-font-specification:Helvetica"
                 x="0 10.1080722 17.8921278 21.00015 28.0002 35.7842556 38.8922778 46.6763334 50.5683612 58.3524168 66.1364724 70.0285002 79.3665669 87.1506225 94.1506725 101.9347281 106.5967614 114.380817 118.2728448 121.380867 129.1649226"
                 y="0"
                 sodipodi:role="line"
                 id="tspan308">Calculated Absorption</tspan></text>
</g></g></g><g
         id="g310"><g
           id="g312"
           clip-path="url(#clipPath314)"><path
             d="m 2107.5,3637.51 0,-720.01"
             style="fill:none;stroke:#00ff00;stroke-opacity:1;stroke-width:25;stroke-linecap:butt;stroke-linejoin:round;stroke-miterlimit:10;stroke-dasharray:none"
             id="path318" /><path
             d="m 2085,3637.51 45,0"
             style="fill:none;stroke:#00ff00;stroke-opacity:1;stroke-width:25;stroke-linecap:butt;stroke-linejoin:round;stroke-miterlimit:10;stroke-dasharray:none"
             id="path320" /><path
             d="m 2085,2917.5 45,0"
             style="fill:none;stroke:#00ff00;stroke-opacity:1;stroke-width:25;stroke-linecap:butt;stroke-linejoin:round;stroke-miterlimit:10;stroke-dasharray:none"
             id="path322" /><path
             d="m 2250,3870.01 0,-922.51"
             style="fill:none;stroke:#00ff00;stroke-opacity:1;stroke-width:25;stroke-linecap:butt;stroke-linejoin:round;stroke-miterlimit:10;stroke-dasharray:none"
             id="path324" /><path
             d="m 2227.5,3870.01 45,0"
             style="fill:none;stroke:#00ff00;stroke-opacity:1;stroke-width:25;stroke-linecap:butt;stroke-linejoin:round;stroke-miterlimit:10;stroke-dasharray:none"
             id="path326" /><path
             d="m 2227.5,2947.5 45,0"
             style="fill:none;stroke:#00ff00;stroke-opacity:1;stroke-width:25;stroke-linecap:butt;stroke-linejoin:round;stroke-miterlimit:10;stroke-dasharray:none"
             id="path328" /><path
             d="M 2835,3240.01 2835,2895"
             style="fill:none;stroke:#00ff00;stroke-opacity:1;stroke-width:25;stroke-linecap:butt;stroke-linejoin:round;stroke-miterlimit:10;stroke-dasharray:none"
             id="path330" /><path
             d="m 2812.5,3240.01 37.5,0"
             style="fill:none;stroke:#00ff00;stroke-opacity:1;stroke-width:25;stroke-linecap:butt;stroke-linejoin:round;stroke-miterlimit:10;stroke-dasharray:none"
             id="path332" /><path
             d="m 2812.5,2895 37.5,0"
             style="fill:none;stroke:#00ff00;stroke-opacity:1;stroke-width:25;stroke-linecap:butt;stroke-linejoin:round;stroke-miterlimit:10;stroke-dasharray:none"
             id="path334" /><path
             d="m 3352.51,3165.01 0,-180.01"
             style="fill:none;stroke:#00ff00;stroke-opacity:1;stroke-width:25;stroke-linecap:butt;stroke-linejoin:round;stroke-miterlimit:10;stroke-dasharray:none"
             id="path336" /><path
             d="m 3337.51,3165.01 37.5,0"
             style="fill:none;stroke:#00ff00;stroke-opacity:1;stroke-width:25;stroke-linecap:butt;stroke-linejoin:round;stroke-miterlimit:10;stroke-dasharray:none"
             id="path338" /><path
             d="m 3337.51,2985 37.5,0"
             style="fill:none;stroke:#00ff00;stroke-opacity:1;stroke-width:25;stroke-linecap:butt;stroke-linejoin:round;stroke-miterlimit:10;stroke-dasharray:none"
             id="path340" /><path
             d="m 3832.51,3142.5 0,-172.5"
             style="fill:none;stroke:#00ff00;stroke-opacity:1;stroke-width:25;stroke-linecap:butt;stroke-linejoin:round;stroke-miterlimit:10;stroke-dasharray:none"
             id="path342" /><path
             d="m 3810.01,3142.5 45,0"
             style="fill:none;stroke:#00ff00;stroke-opacity:1;stroke-width:25;stroke-linecap:butt;stroke-linejoin:round;stroke-miterlimit:10;stroke-dasharray:none"
             id="path344" /><path
             d="m 3810.01,2970 45,0"
             style="fill:none;stroke:#00ff00;stroke-opacity:1;stroke-width:25;stroke-linecap:butt;stroke-linejoin:round;stroke-miterlimit:10;stroke-dasharray:none"
             id="path346" /><path
             d="m 4267.51,3202.51 0,-112.51"
             style="fill:none;stroke:#00ff00;stroke-opacity:1;stroke-width:25;stroke-linecap:butt;stroke-linejoin:round;stroke-miterlimit:10;stroke-dasharray:none"
             id="path348" /><path
             d="m 4245.01,3202.51 37.5,0"
             style="fill:none;stroke:#00ff00;stroke-opacity:1;stroke-width:25;stroke-linecap:butt;stroke-linejoin:round;stroke-miterlimit:10;stroke-dasharray:none"
             id="path350" /><path
             d="m 4245.01,3090 37.5,0"
             style="fill:none;stroke:#00ff00;stroke-opacity:1;stroke-width:25;stroke-linecap:butt;stroke-linejoin:round;stroke-miterlimit:10;stroke-dasharray:none"
             id="path352" /></g></g><g
         id="g354"><g
           id="g356"
           clip-path="url(#clipPath358)"><path
             d="m 2137.5,3277.51 c 0,-16.57 -13.43,-30 -30,-30 -16.56,0 -30,13.43 -30,30 0,16.56 13.44,30 30,30 16.57,0 30,-13.44 30,-30"
             style="fill:#00ff00;fill-opacity:1;fill-rule:nonzero;stroke:none"
             id="path362" /><path
             d="m 2280,3405.01 c 0,-16.57 -13.43,-30 -30,-30 -16.56,0 -30,13.43 -30,30 0,16.56 13.44,30 30,30 16.57,0 30,-13.44 30,-30"
             style="fill:#00ff00;fill-opacity:1;fill-rule:nonzero;stroke:none"
             id="path364" /><path
             d="m 2865,3067.5 c 0,-16.56 -13.43,-30 -30,-30 -16.56,0 -30,13.44 -30,30 0,16.57 13.44,30 30,30 16.57,0 30,-13.43 30,-30"
             style="fill:#00ff00;fill-opacity:1;fill-rule:nonzero;stroke:none"
             id="path366" /><path
             d="m 3382.51,3075 c 0,-16.56 -13.44,-30 -30,-30 -16.57,0 -30.01,13.44 -30.01,30 0,16.57 13.44,30 30.01,30 16.56,0 30,-13.43 30,-30"
             style="fill:#00ff00;fill-opacity:1;fill-rule:nonzero;stroke:none"
             id="path368" /><path
             d="m 3862.51,3052.5 c 0,-16.56 -13.44,-30 -30,-30 -16.57,0 -30,13.44 -30,30 0,16.57 13.43,30 30,30 16.56,0 30,-13.43 30,-30"
             style="fill:#00ff00;fill-opacity:1;fill-rule:nonzero;stroke:none"
             id="path370" /><path
             d="m 4297.51,3142.5 c 0,-16.56 -13.44,-30 -30,-30 -16.57,0 -30,13.44 -30,30 0,16.57 13.43,30.01 30,30.01 16.56,0 30,-13.44 30,-30.01"
             style="fill:#00ff00;fill-opacity:1;fill-rule:nonzero;stroke:none"
             id="path372" /><g
             id="g374"
             transform="scale(10,10)" /><path
             d="m 1560,4852.51 787.504,0 0,390 -787.504,0 0,-390 z"
             style="fill:#ffffff;fill-opacity:1;fill-rule:evenodd;stroke:none"
             id="path376" /><path
             d="m 1560,4852.51 0,390 787.5,0 0,-390 -787.5,0"
             style="fill:none;stroke:#ffffff;stroke-opacity:1;stroke-width:5.00001;stroke-linecap:butt;stroke-linejoin:round;stroke-miterlimit:10;stroke-dasharray:none"
             id="path378" /><path
             d="m 1560,5242.51 787.5,0"
             style="fill:none;stroke:#000000;stroke-opacity:1;stroke-width:5.00001;stroke-linecap:butt;stroke-linejoin:round;stroke-miterlimit:10;stroke-dasharray:none"
             id="path380" /><path
             d="m 1560,4852.51 787.5,0"
             style="fill:none;stroke:#000000;stroke-opacity:1;stroke-width:5.00001;stroke-linecap:butt;stroke-linejoin:round;stroke-miterlimit:10;stroke-dasharray:none"
             id="path382" /><path
             d="m 2347.5,4852.51 0,390"
             style="fill:none;stroke:#000000;stroke-opacity:1;stroke-width:5.00001;stroke-linecap:butt;stroke-linejoin:round;stroke-miterlimit:10;stroke-dasharray:none"
             id="path384" /><path
             d="m 1560,4852.51 0,390"
             style="fill:none;stroke:#000000;stroke-opacity:1;stroke-width:5.00001;stroke-linecap:butt;stroke-linejoin:round;stroke-miterlimit:10;stroke-dasharray:none"
             id="path386" /><path
             d="m 1560,4852.51 787.5,0"
             style="fill:none;stroke:#000000;stroke-opacity:1;stroke-width:5.00001;stroke-linecap:butt;stroke-linejoin:round;stroke-miterlimit:10;stroke-dasharray:none"
             id="path388" /><path
             d="m 1560,4852.51 0,390"
             style="fill:none;stroke:#000000;stroke-opacity:1;stroke-width:5.00001;stroke-linecap:butt;stroke-linejoin:round;stroke-miterlimit:10;stroke-dasharray:none"
             id="path390" /><path
             d="m 1560,5242.51 787.5,0"
             style="fill:none;stroke:#000000;stroke-opacity:1;stroke-width:5.00001;stroke-linecap:butt;stroke-linejoin:round;stroke-miterlimit:10;stroke-dasharray:none"
             id="path392" /><path
             d="m 1560,4852.51 787.5,0"
             style="fill:none;stroke:#000000;stroke-opacity:1;stroke-width:5.00001;stroke-linecap:butt;stroke-linejoin:round;stroke-miterlimit:10;stroke-dasharray:none"
             id="path394" /><path
             d="m 2347.5,4852.51 0,390"
             style="fill:none;stroke:#000000;stroke-opacity:1;stroke-width:5.00001;stroke-linecap:butt;stroke-linejoin:round;stroke-miterlimit:10;stroke-dasharray:none"
             id="path396" /><path
             d="m 1560,4852.51 0,390"
             style="fill:none;stroke:#000000;stroke-opacity:1;stroke-width:5.00001;stroke-linecap:butt;stroke-linejoin:round;stroke-miterlimit:10;stroke-dasharray:none"
             id="path398" /><g
             id="g400"
             transform="scale(10,10)"><text
               transform="matrix(1,0,0,-1,195,508.501)"
               id="text402"><tspan
                 style="fill:#000000;fill-opacity:1;fill-rule:nonzero;stroke:none;font-family:Helvetica;font-variant:normal;font-weight:normal;font-size:14.0001;writing-mode:lr;-inkscape-font-specification:Helvetica"
                 x="0 10.1080722 17.8921278 21.00015 28.0002"
                 y="0"
                 sodipodi:role="line"
                 id="tspan404">Naive</tspan></text>
</g></g></g><g
         id="g406"><g
           id="g408"
           clip-path="url(#clipPath410)"><path
             d="m 1800,5137.51 c 0,-16.56 -13.43,-30 -30,-30 -16.56,0 -30,13.44 -30,30 0,16.57 13.44,30 30,30 16.57,0 30,-13.43 30,-30"
             style="fill:#0000ff;fill-opacity:1;fill-rule:nonzero;stroke:none"
             id="path414" /></g></g><g
         id="g416"><g
           id="g418"
           clip-path="url(#clipPath420)"><g
             id="g424"
             transform="scale(10,10)"><text
               transform="matrix(1,0,0,-1,195,489.751)"
               id="text426"><tspan
                 style="fill:#000000;fill-opacity:1;fill-rule:nonzero;stroke:none;font-family:Helvetica;font-variant:normal;font-weight:normal;font-size:14.0001;writing-mode:lr;-inkscape-font-specification:Helvetica"
                 x="0 8.5540611 16.3381167 19.4461389"
                 y="0"
                 sodipodi:role="line"
                 id="tspan428">Full</tspan></text>
</g></g></g><g
         id="g430"><g
           id="g432"
           clip-path="url(#clipPath434)"><path
             d="m 1800,4965.01 c 0,-16.56 -13.43,-30 -30,-30 -16.56,0 -30,13.44 -30,30 0,16.57 13.44,30 30,30 16.57,0 30,-13.43 30,-30"
             style="fill:#00ff00;fill-opacity:1;fill-rule:nonzero;stroke:none"
             id="path438" /></g></g></g></g></svg>